<svg version="1.1" id="Layer_1" 
  xmlns="http://www.w3.org/2000/svg" x="0" y="0" viewBox="11 37 837 376" xml:space="preserve">
  <path d="M140 274l18 5c22 7 34 26 35 49v54c0 17-4 33-18 45a63 63 0 01-41 16l-74 1H11V137h118c9 1 18 2 27 5 17 4 27 16 30 33 4 23 4 46 0 69-2 14-11 22-24 26l-22 4zM88 392h5c15 0 21-6 21-21v-48c0-16-11-23-26-19v88zm-1-136c17 3 27-4 27-21v-29c0-15-11-23-27-19v69zM311 265H203V5h65v210h43v50zM539 343h-47c1-12 1-24 3-35 2-17 14-26 30-30 17-3 34-3 51 2 14 4 24 14 26 29 2 13 2 26 2 39v95h-48l-1-8c-7 6-15 10-23 12-22 3-38-9-39-31v-33c0-9 3-16 11-20l25-11 18-8c5-3 7-7 7-12v-20-4c-2-4-4-7-9-7-4 1-6 4-6 8v34zm15 24c-9 4-15 12-15 21v19c0 5 3 9 7 9s8-3 8-9v-40zM848 443h-48v-7c-6 3-11 7-16 8-7 2-15 3-22 2-14-1-24-13-25-29v-35c0-8 4-15 12-19l29-13 14-7c4-2 6-6 6-11v-21-3c-1-4-4-7-8-7-5 1-7 4-7 8v34h-46c0-13-1-26 2-38 5-16 16-24 32-27 14-3 29-3 44 0 21 5 32 18 33 40v125zm-50-76c-10 4-15 12-15 22v18c0 6 3 9 7 9 5 0 8-3 8-9v-30-10zM312 443h-47v-8l-5 3c-8 7-19 10-30 9-17-1-28-13-29-32v-32c1-10 5-17 14-21l25-11 16-8c5-2 7-6 7-12v-19l-1-5c-1-4-4-6-8-6-4 1-6 4-6 8l-1 25v9h-46c0-14-1-27 3-39 5-15 16-23 30-26 15-3 30-3 44 0 22 4 33 18 34 40v125zm-49-77c-8 5-14 11-15 19v24c0 4 2 7 7 7 4 0 8-3 8-8v-42zM728 342h-48v-27c0-7-5-11-12-8-4 2-4 6-4 10v83l1 10c0 4 3 7 7 7s8-1 9-6l1-9v-26h48c-1 22 0 45-19 61-8 6-17 8-26 9-14 2-28 1-41-4-21-9-29-25-29-46v-68c0-28 16-47 45-51 13-2 27-1 40 4 18 8 26 23 28 42v19zM371 443h-50V280h48v19c7-13 16-20 31-23v59h-9c-12 0-20 8-20 20v88zM457 443h-49V281h47v17c7-12 17-20 31-22v59h-7c-13 0-22 8-22 21v87zM399 263h-34l-1-5c-6 5-13 8-22 8-13 0-22-7-23-20v-28c1-6 4-10 9-13l20-9c11-3 18-9 16-22l-1-7c0-4-2-6-5-6-5 0-6 3-6 7l1 19-1 4h-33c0-11-1-22 4-33 4-8 11-12 19-14 12-2 23-2 35 0 15 4 22 13 23 30v86l-1 3zm-36-55l-2 1c-8 6-12 23-8 31 1 2 4 4 6 3l4-4v-31z"/>
</svg>